# xmcd
#
# Track frame offsets:
#	150
#	19312
#	35987
#	52410
#	69410
#	85572
#	99975
#	117830
#	133820
#	152007
#	170925
#	190535
#	210665
#	227077
#
# Disc length: 3280 seconds
#
# Revision: 1
# Processed by: cddbd v1.5.1PL0 Copyright (c) Steve Scherf et al.
# Submitted via: CDex 1.50Beta5
#
DISCID=c40cce0e
DTITLE=立花理佐 - 理佐発見
DYEAR=1988
DGENRE=Pop
TTITLE0=刹那主義
TTITLE1=疑問
TTITLE2=大人はわかってくれない
TTITLE3=サヨナラを言わせないで
TTITLE4=キミはどんとくらい
TTITLE5=DO YOU LIKE ナマイ気?
TTITLE6=17%のKISS
TTITLE7=ジョニー・エンジェル
TTITLE8=内気なガール・ハント
TTITLE9=おとぎの国は眠らない
TTITLE10=薄紫のシンフォニー
TTITLE11=ライバル
TTITLE12=瞳に天気雨
TTITLE13=月曜日に雨は降らない
EXTD=
EXTT0=
EXTT1=
EXTT2=
EXTT3=
EXTT4=
EXTT5=
EXTT6=
EXTT7=
EXTT8=
EXTT9=
EXTT10=
EXTT11=
EXTT12=
EXTT13=
PLAYORDER=
